# xmcd
#
# Track frame offsets:
#	150
#	1684
#	20138
#	51181
#	63997
#	124018
#	157809
#	197122
#	219779
#	255253
#
# Disc length: 3812 seconds
#
# Revision: 1
# Processed by: cddbd v1.5.2PL0 Copyright (c) Steve Scherf et al.
# Submitted via: audiograbber 1.83.01
#
DISCID=760ee20a
DTITLE=Grateful Dead - 77-09-03 Raceway Park, Englishtown NJ
DYEAR=1900
DGENRE=
TTITLE0=Intro
TTITLE1=Promised Land
TTITLE2=They Love Each Other
TTITLE3=Me and My Uncle
TTITLE4=Mississippi Half-Step
TTITLE5=Looks Like Rain
TTITLE6=Peggy-O
TTITLE7=New Minglewood Blues
TTITLE8=Friend Of The Devil
TTITLE9=The Music Never Stopped
EXTD=
EXTT0=
EXTT1=
EXTT2=
EXTT3=
EXTT4=
EXTT5=
EXTT6=
EXTT7=
EXTT8=
EXTT9=
PLAYORDER=
